<svg width="338" height="57" viewBox="0 0 338 57" fill="none" xmlns="http://www.w3.org/2000/svg">
<path d="M62 14.5492V56.3505H78.9179V35.9121C70.9851 30.7579 64.9585 23.2794 62 14.5492Z" fill="#000059"/>
<path d="M122.87 0.00169157H105.782C105.718 0.109106 105.652 0.215675 105.583 0.319707C102.772 4.76431 97.9003 7.91401 92.2106 8.60079C95.717 10.142 99.6106 10.9405 103.559 10.9284C104.242 10.9284 104.916 10.9053 105.582 10.859V18.1438C105.521 18.1438 105.459 18.1438 105.399 18.1438C96.1008 18.1438 87.869 13.9149 82.8309 7.42176C81.6539 5.90381 80.6651 4.28651 79.8804 2.59571C79.5171 1.81646 79.1959 1.01889 78.9169 0.202988C78.8929 0.136171 78.871 0.066817 78.8491 0H62.1854C66.3506 18.6326 84.1791 32.6591 105.583 32.7775V56.0366H122.87V29.5373L122.837 29.5509C122.859 29.1218 122.87 28.6896 122.87 28.2543V0.00169157Z" fill="#000059"/>
<path d="M145.979 16.0434L151.823 32.5434L157.636 16.0434H163.792V38.7934H159.089V32.5746L159.558 21.8402L153.417 38.7934H150.198L144.073 21.8559L144.542 32.5746V38.7934H139.854V16.0434H145.979ZM172.87 38.7934H168.183V16.0434H172.87V38.7934ZM193.886 19.8402H186.917V38.7934H182.229V19.8402H175.354V16.0434H193.886V19.8402ZM221.464 31.2152C221.287 33.6632 220.381 35.5902 218.745 36.9965C217.12 38.4027 214.974 39.1059 212.308 39.1059C209.391 39.1059 207.094 38.1267 205.417 36.1684C203.75 34.1996 202.917 31.5017 202.917 28.0746V26.684C202.917 24.4965 203.302 22.5694 204.073 20.9027C204.844 19.2361 205.943 17.96 207.37 17.0746C208.808 16.1788 210.474 15.7309 212.37 15.7309C214.995 15.7309 217.11 16.434 218.714 17.8402C220.318 19.2465 221.245 21.2204 221.495 23.7621H216.808C216.693 22.2934 216.282 21.2309 215.573 20.5746C214.875 19.9079 213.808 19.5746 212.37 19.5746C210.808 19.5746 209.636 20.1371 208.854 21.2621C208.084 22.3767 207.688 24.1111 207.667 26.4652V28.184C207.667 30.6423 208.037 32.4392 208.776 33.5746C209.526 34.71 210.703 35.2777 212.308 35.2777C213.756 35.2777 214.834 34.9496 215.542 34.2934C216.261 33.6267 216.672 32.6007 216.776 31.2152H221.464ZM223.542 30.184C223.542 28.5069 223.865 27.0121 224.511 25.6996C225.157 24.3871 226.084 23.3715 227.292 22.6527C228.511 21.934 229.922 21.5746 231.526 21.5746C233.808 21.5746 235.667 22.2725 237.104 23.6684C238.552 25.0642 239.36 26.96 239.526 29.3559L239.558 30.5121C239.558 33.1059 238.834 35.1892 237.386 36.7621C235.938 38.3246 233.995 39.1059 231.558 39.1059C229.12 39.1059 227.172 38.3246 225.714 36.7621C224.266 35.1996 223.542 33.0746 223.542 30.3871V30.184ZM228.058 30.5121C228.058 32.1163 228.36 33.3454 228.964 34.1996C229.568 35.0434 230.433 35.4652 231.558 35.4652C232.651 35.4652 233.506 35.0486 234.12 34.2152C234.735 33.3715 235.042 32.0277 235.042 30.184C235.042 28.6111 234.735 27.3923 234.12 26.5277C233.506 25.6632 232.641 25.2309 231.526 25.2309C230.422 25.2309 229.568 25.6632 228.964 26.5277C228.36 27.3819 228.058 28.71 228.058 30.5121ZM246.573 21.8871L246.714 23.7777C247.912 22.309 249.532 21.5746 251.573 21.5746C253.75 21.5746 255.245 22.434 256.058 24.1527C257.245 22.434 258.938 21.5746 261.136 21.5746C262.969 21.5746 264.334 22.1111 265.229 23.184C266.125 24.2465 266.573 25.8507 266.573 27.9965V38.7934H262.042V28.0121C262.042 27.0538 261.854 26.3559 261.479 25.9184C261.104 25.4704 260.443 25.2465 259.495 25.2465C258.141 25.2465 257.203 25.8923 256.683 27.184L256.698 38.7934H252.183V28.0277C252.183 27.0486 251.99 26.3402 251.604 25.9027C251.219 25.4652 250.563 25.2465 249.636 25.2465C248.354 25.2465 247.427 25.7777 246.854 26.8402V38.7934H242.339V21.8871H246.573ZM285.276 30.4965C285.276 33.1007 284.683 35.1892 283.495 36.7621C282.318 38.3246 280.724 39.1059 278.714 39.1059C277.006 39.1059 275.625 38.5121 274.573 37.3246V45.2934H270.058V21.8871H274.245L274.401 23.5434C275.495 22.2309 276.922 21.5746 278.683 21.5746C280.766 21.5746 282.386 22.3454 283.542 23.8871C284.698 25.4288 285.276 27.5538 285.276 30.2621V30.4965ZM280.761 30.1684C280.761 28.5954 280.479 27.3819 279.917 26.5277C279.365 25.6736 278.558 25.2465 277.495 25.2465C276.078 25.2465 275.104 25.7882 274.573 26.8715V33.7934C275.125 34.9079 276.11 35.4652 277.526 35.4652C279.683 35.4652 280.761 33.6996 280.761 30.1684ZM297.886 38.7934C297.677 38.3871 297.526 37.8819 297.433 37.2777C296.339 38.4965 294.917 39.1059 293.167 39.1059C291.511 39.1059 290.136 38.6267 289.042 37.6684C287.959 36.71 287.417 35.5017 287.417 34.0434C287.417 32.2517 288.078 30.8767 289.401 29.9184C290.735 28.96 292.657 28.4757 295.167 28.4652H297.245V27.4965C297.245 26.7152 297.042 26.0902 296.636 25.6215C296.24 25.1527 295.61 24.9184 294.745 24.9184C293.985 24.9184 293.386 25.1007 292.948 25.4652C292.521 25.8298 292.308 26.3298 292.308 26.9652H287.792C287.792 25.9861 288.094 25.0798 288.698 24.2465C289.302 23.4132 290.157 22.7621 291.261 22.2934C292.365 21.8142 293.604 21.5746 294.979 21.5746C297.063 21.5746 298.714 22.1007 299.933 23.1527C301.162 24.1944 301.776 25.6632 301.776 27.559V34.8871C301.787 36.4913 302.011 37.7048 302.448 38.5277V38.7934H297.886ZM294.151 35.6527C294.818 35.6527 295.433 35.5069 295.995 35.2152C296.558 34.9132 296.974 34.5121 297.245 34.0121V31.1059H295.558C293.297 31.1059 292.094 31.8871 291.948 33.4496L291.933 33.7152C291.933 34.2777 292.131 34.7413 292.526 35.1059C292.922 35.4704 293.464 35.6527 294.151 35.6527ZM309.401 21.8871L309.542 23.8402C310.75 22.3298 312.37 21.5746 314.401 21.5746C316.193 21.5746 317.526 22.1007 318.401 23.1527C319.276 24.2048 319.724 25.7777 319.745 27.8715V38.7934H315.229V27.9809C315.229 27.0225 315.021 26.3298 314.604 25.9027C314.188 25.4652 313.495 25.2465 312.526 25.2465C311.256 25.2465 310.302 25.7882 309.667 26.8715V38.7934H305.151V21.8871H309.401ZM329.495 32.4027L332.62 21.8871H337.464L330.667 41.4184L330.292 42.309C329.282 44.5173 327.615 45.6215 325.292 45.6215C324.636 45.6215 323.969 45.5225 323.292 45.3246V41.9027L323.979 41.9184C324.834 41.9184 325.469 41.7882 325.886 41.5277C326.313 41.2673 326.646 40.835 326.886 40.2309L327.417 38.8402L321.495 21.8871H326.354L329.495 32.4027Z" fill="#000059"/>
</svg>
