<svg width="66" height="69" viewBox="0 0 66 69" fill="none" xmlns="http://www.w3.org/2000/svg">
<path d="M0 17.8152V69H18.0941V43.9736C9.60976 37.6624 3.16418 28.5052 0 17.8152Z" fill="#000059"/>
<path d="M65.1015 0.00207129H46.8263C46.757 0.133598 46.6867 0.26409 46.6132 0.391474C43.6067 5.8338 38.3963 9.69054 32.311 10.5315C36.0612 12.4186 40.2255 13.3965 44.4486 13.3816C45.179 13.3816 45.9002 13.3533 46.6121 13.2967V22.2167C46.5471 22.2167 46.481 22.2167 46.416 22.2167C36.4716 22.2167 27.6676 17.0385 22.2792 9.0878C21.0203 7.2291 19.9628 5.24874 19.1236 3.1784C18.7349 2.22422 18.3914 1.24761 18.093 0.248555C18.0674 0.166739 18.044 0.0818161 18.0205 0H0.198242C4.65302 22.8153 23.7212 39.9904 46.6132 40.1354V68.6157H65.1015V36.1679L65.0664 36.1844C65.0898 35.659 65.1015 35.1298 65.1015 34.5968V0.00207129Z" fill="#000059"/>
</svg>
