<svg width="122" height="16" viewBox="0 0 122 16" fill="none" xmlns="http://www.w3.org/2000/svg">
<path d="M4.5 3C2.01471 3 0 5.19787 0 7.90909C0 10.6203 2.01471 12.8182 4.5 12.8182C6.98529 12.8182 9 10.6203 9 7.90909C9 5.19787 6.98529 3 4.5 3ZM6.62542 9.86388C6.59653 9.90084 5.90367 10.7691 4.63215 10.7691C3.0954 10.7691 2.01047 9.5169 2.01047 7.88765C2.01047 6.27828 3.13554 5.04907 4.61905 5.04907C5.834 5.04907 6.46922 5.78771 6.49566 5.81916C6.52824 5.8579 6.54811 5.90733 6.55218 5.95971C6.55624 6.01209 6.54427 6.06446 6.51812 6.10862L6.11203 6.79461C6.03856 6.91866 5.88025 6.94012 5.78118 6.84004C5.77695 6.8358 5.2998 6.36734 4.65835 6.36734C3.82157 6.36734 3.31714 7.03195 3.31714 7.87336C3.31714 8.65727 3.78009 9.45084 4.6649 9.45084C5.36707 9.45084 5.84942 8.8899 5.85421 8.88422C5.94733 8.77406 6.10931 8.78459 6.19004 8.90506L6.63545 9.56961C6.66436 9.61274 6.67909 9.66525 6.67727 9.71865C6.67545 9.77204 6.65718 9.82321 6.62542 9.86388Z" fill="#000059"/>
<path d="M14.2539 3.04688L17.125 10.6758L19.9893 3.04688H22.2246V13H20.502V9.71875L20.6729 5.33008L17.7334 13H16.4961L13.5635 5.33691L13.7344 9.71875V13H12.0117V3.04688H14.2539ZM25.4006 13H23.6779V3.04688H25.4006V13ZM33.8129 4.44141H30.7094V13H28.9936V4.44141H25.9174V3.04688H33.8129V4.44141ZM44.3963 9.75977C44.296 10.8216 43.9041 11.651 43.2205 12.248C42.5369 12.8405 41.6277 13.1367 40.493 13.1367C39.7 13.1367 39.0005 12.9499 38.3943 12.5762C37.7928 12.1979 37.3279 11.6624 36.9998 10.9697C36.6717 10.277 36.5008 9.47266 36.4871 8.55664V7.62695C36.4871 6.68815 36.6535 5.861 36.9861 5.14551C37.3188 4.43001 37.7951 3.87858 38.4148 3.49121C39.0392 3.10384 39.7592 2.91016 40.575 2.91016C41.6733 2.91016 42.5574 3.20866 43.2273 3.80566C43.8973 4.40267 44.2869 5.24577 44.3963 6.33496H42.6736C42.5916 5.61947 42.382 5.10449 42.0447 4.79004C41.712 4.47103 41.2221 4.31152 40.575 4.31152C39.823 4.31152 39.2443 4.58724 38.8387 5.13867C38.4376 5.68555 38.2326 6.48991 38.2234 7.55176V8.43359C38.2234 9.50911 38.4148 10.3294 38.7977 10.8945C39.185 11.4596 39.7501 11.7422 40.493 11.7422C41.172 11.7422 41.6824 11.5895 42.0242 11.2842C42.366 10.9788 42.5825 10.4707 42.6736 9.75977H44.3963ZM44.7764 9.2334C44.7764 8.50879 44.9199 7.8571 45.207 7.27832C45.4941 6.69499 45.8975 6.24837 46.417 5.93848C46.9365 5.62402 47.5335 5.4668 48.208 5.4668C49.2061 5.4668 50.015 5.78809 50.6348 6.43066C51.2591 7.07324 51.5964 7.92546 51.6465 8.9873L51.6533 9.37695C51.6533 10.1061 51.512 10.7578 51.2295 11.332C50.9515 11.9062 50.5505 12.3506 50.0264 12.665C49.5068 12.9795 48.9053 13.1367 48.2217 13.1367C47.1781 13.1367 46.3418 12.7904 45.7129 12.0977C45.0885 11.4004 44.7764 10.473 44.7764 9.31543V9.2334ZM46.4375 9.37695C46.4375 10.138 46.5947 10.735 46.9092 11.168C47.2236 11.5964 47.6611 11.8105 48.2217 11.8105C48.7822 11.8105 49.2174 11.5918 49.5273 11.1543C49.8418 10.7168 49.999 10.0765 49.999 9.2334C49.999 8.486 49.8372 7.89355 49.5137 7.45605C49.1947 7.01855 48.7594 6.7998 48.208 6.7998C47.6657 6.7998 47.235 7.01628 46.916 7.44922C46.597 7.8776 46.4375 8.52018 46.4375 9.37695ZM53.9201 5.60352L53.968 6.37598C54.4875 5.76986 55.1984 5.4668 56.1008 5.4668C57.0897 5.4668 57.7665 5.84505 58.1311 6.60156C58.6688 5.84505 59.4253 5.4668 60.4006 5.4668C61.2163 5.4668 61.8225 5.69238 62.2189 6.14355C62.62 6.59473 62.8251 7.26009 62.8342 8.13965V13H61.173V8.1875C61.173 7.7181 61.0705 7.37402 60.8654 7.15527C60.6604 6.93652 60.3208 6.82715 59.8469 6.82715C59.4686 6.82715 59.1587 6.92969 58.9172 7.13477C58.6802 7.33529 58.5139 7.59961 58.4182 7.92773L58.425 13H56.7639V8.13281C56.7411 7.26237 56.2967 6.82715 55.4309 6.82715C54.7655 6.82715 54.2938 7.09831 54.0158 7.64062V13H52.3547V5.60352H53.9201ZM70.3168 9.37695C70.3168 10.5208 70.057 11.4346 69.5375 12.1182C69.018 12.7972 68.3207 13.1367 67.4457 13.1367C66.6345 13.1367 65.9851 12.8701 65.4975 12.3369V15.8438H63.8363V5.60352H65.3676L65.4359 6.35547C65.9236 5.76302 66.5867 5.4668 67.4252 5.4668C68.3275 5.4668 69.0339 5.80404 69.5443 6.47852C70.0593 7.14844 70.3168 8.0804 70.3168 9.27441V9.37695ZM68.6625 9.2334C68.6625 8.49512 68.5144 7.90951 68.2182 7.47656C67.9265 7.04362 67.5072 6.82715 66.9604 6.82715C66.2813 6.82715 65.7937 7.10742 65.4975 7.66797V10.9492C65.7982 11.5234 66.2904 11.8105 66.974 11.8105C67.5027 11.8105 67.9151 11.5986 68.2113 11.1748C68.5121 10.7464 68.6625 10.0993 68.6625 9.2334ZM75.4479 13C75.3749 12.8587 75.3111 12.6286 75.2564 12.3096C74.7278 12.861 74.0807 13.1367 73.315 13.1367C72.5722 13.1367 71.9661 12.9248 71.4967 12.501C71.0273 12.0771 70.7926 11.5531 70.7926 10.9287C70.7926 10.1403 71.0842 9.53646 71.6676 9.11719C72.2555 8.69336 73.094 8.48145 74.1832 8.48145H75.2018V7.99609C75.2018 7.61328 75.0947 7.30794 74.8805 7.08008C74.6663 6.84766 74.3404 6.73145 73.9029 6.73145C73.5247 6.73145 73.2148 6.82715 72.9732 7.01855C72.7317 7.2054 72.6109 7.44466 72.6109 7.73633H70.9498C70.9498 7.33073 71.0842 6.95247 71.3531 6.60156C71.622 6.24609 71.9866 5.9681 72.4469 5.76758C72.9117 5.56706 73.429 5.4668 73.9986 5.4668C74.8645 5.4668 75.5549 5.68555 76.0699 6.12305C76.5849 6.55599 76.8492 7.16667 76.8629 7.95508V11.291C76.8629 11.9564 76.9563 12.4873 77.1432 12.8838V13H75.4479ZM73.6227 11.8037C73.9508 11.8037 74.2584 11.724 74.5455 11.5645C74.8372 11.4049 75.0559 11.1908 75.2018 10.9219V9.52734H74.3063C73.691 9.52734 73.2285 9.63444 72.9186 9.84863C72.6087 10.0628 72.4537 10.3659 72.4537 10.7578C72.4537 11.0768 72.5585 11.332 72.7682 11.5234C72.9824 11.7103 73.2672 11.8037 73.6227 11.8037ZM79.4441 5.60352L79.492 6.45801C80.0389 5.7972 80.7566 5.4668 81.6453 5.4668C83.1857 5.4668 83.9695 6.34863 83.9969 8.1123V13H82.3357V8.20801C82.3357 7.73861 82.2332 7.39225 82.0281 7.16895C81.8276 6.94108 81.4972 6.82715 81.0369 6.82715C80.367 6.82715 79.868 7.13021 79.5398 7.73633V13H77.8787V5.60352H79.4441ZM87.583 10.6211L89.0869 5.60352H90.8574L87.918 14.1211C87.4668 15.3652 86.7012 15.9873 85.6211 15.9873C85.3796 15.9873 85.113 15.9463 84.8213 15.8643V14.5791L85.1357 14.5996C85.555 14.5996 85.8695 14.5221 86.0791 14.3672C86.2933 14.2168 86.4619 13.9616 86.585 13.6016L86.8242 12.9658L84.2266 5.60352H86.0176L87.583 10.6211ZM100.491 13H93.7982V11.8584L97.1137 8.24219C97.5922 7.70898 97.9317 7.26465 98.1322 6.90918C98.3373 6.54915 98.4398 6.18913 98.4398 5.8291C98.4398 5.35514 98.3054 4.97233 98.0365 4.68066C97.7722 4.389 97.4145 4.24316 96.9633 4.24316C96.4255 4.24316 96.0085 4.40723 95.7123 4.73535C95.4161 5.06348 95.268 5.51237 95.268 6.08203H93.6068C93.6068 5.47591 93.7436 4.93132 94.017 4.44824C94.295 3.96061 94.6892 3.58236 95.1996 3.31348C95.7146 3.0446 96.307 2.91016 96.977 2.91016C97.9431 2.91016 98.7042 3.15397 99.2602 3.6416C99.8207 4.12467 100.101 4.7946 100.101 5.65137C100.101 6.14811 99.9597 6.66992 99.6771 7.2168C99.3992 7.75911 98.9411 8.37663 98.3031 9.06934L95.8695 11.6738H100.491V13ZM107.679 8.80957C107.679 10.2406 107.41 11.3206 106.873 12.0498C106.339 12.7744 105.526 13.1367 104.432 13.1367C103.357 13.1367 102.546 12.7835 101.999 12.0771C101.456 11.3662 101.178 10.3158 101.165 8.92578V7.20312C101.165 5.77214 101.431 4.69889 101.964 3.9834C102.502 3.2679 103.32 2.91016 104.419 2.91016C105.508 2.91016 106.319 3.25879 106.852 3.95605C107.39 4.65332 107.666 5.69694 107.679 7.08691V8.80957ZM106.018 6.9502C106.018 6.01595 105.891 5.33236 105.635 4.89941C105.38 4.46191 104.975 4.24316 104.419 4.24316C103.876 4.24316 103.477 4.45052 103.222 4.86523C102.967 5.27539 102.833 5.91797 102.819 6.79297V9.04883C102.819 9.97852 102.949 10.6712 103.209 11.127C103.468 11.5827 103.876 11.8105 104.432 11.8105C104.965 11.8105 105.36 11.6009 105.615 11.1816C105.87 10.7578 106.004 10.097 106.018 9.19922V6.9502ZM115.278 13H108.586V11.8584L111.901 8.24219C112.38 7.70898 112.719 7.26465 112.92 6.90918C113.125 6.54915 113.227 6.18913 113.227 5.8291C113.227 5.35514 113.093 4.97233 112.824 4.68066C112.56 4.389 112.202 4.24316 111.751 4.24316C111.213 4.24316 110.796 4.40723 110.5 4.73535C110.204 5.06348 110.055 5.51237 110.055 6.08203H108.394C108.394 5.47591 108.531 4.93132 108.804 4.44824C109.082 3.96061 109.477 3.58236 109.987 3.31348C110.502 3.0446 111.095 2.91016 111.764 2.91016C112.731 2.91016 113.492 3.15397 114.048 3.6416C114.608 4.12467 114.888 4.7946 114.888 5.65137C114.888 6.14811 114.747 6.66992 114.465 7.2168C114.187 7.75911 113.729 8.37663 113.091 9.06934L110.657 11.6738H115.278V13ZM119.814 13H118.16V5.00879L115.72 5.84277V4.44141L119.603 3.0127H119.814V13Z" fill="#000059"/>
</svg>
