<svg width="28" height="31" viewBox="0 0 28 31" fill="none" xmlns="http://www.w3.org/2000/svg">
<path d="M27.2015 21.9057L21.0764 18.9994C20.8147 18.8759 20.5239 18.8499 20.2477 18.9253C19.9716 19.0006 19.725 19.1733 19.5451 19.4172L16.8326 23.0864C12.5755 20.8642 9.14949 17.0711 7.14231 12.3579L10.4564 9.35471C10.6772 9.15592 10.8335 8.88291 10.9015 8.57701C10.9696 8.2711 10.9458 7.94897 10.8338 7.65937L8.20874 0.878002C8.08575 0.565822 7.86823 0.310937 7.59368 0.157299C7.31914 0.00366021 7.00478 -0.0391022 6.7048 0.0363852L1.01721 1.48954C0.727996 1.56348 0.469963 1.74376 0.285219 2.00097C0.100476 2.25819 -6.6622e-05 2.57713 3.31205e-08 2.90575C3.31205e-08 18.4363 11.3697 31 25.3754 31C25.6724 31.0002 25.9606 30.889 26.193 30.6844C26.4254 30.4799 26.5883 30.1941 26.6551 29.8738L27.9677 23.5768C28.0354 23.2431 27.996 22.8937 27.8561 22.5886C27.7163 22.2836 27.4848 22.0421 27.2015 21.9057Z" fill="#000059"/>
</svg>
