<svg width="28" height="20" viewBox="0 0 28 20" fill="none" xmlns="http://www.w3.org/2000/svg">
<g clip-path="url(#clip0)">
<path d="M0.0566406 13.3331L27.0566 13.3331V19.9998L0.0566406 19.9998L0.0566406 13.3331Z" fill="#1EB53A"/>
<path d="M0.0566406 0L27.0566 0V6.66667L0.0566406 6.66667L0.0566406 0Z" fill="#0099B5"/>
<path d="M0.0566406 6.40015L27.0566 6.40015V13.6002L0.0566406 13.6002L0.0566406 6.40015Z" fill="#CE1126"/>
<path d="M0.0566406 6.79993L27.0566 6.79993V13.1999L0.0566406 13.1999L0.0566406 6.79993Z" fill="white"/>
<path d="M5.72651 5.60017C7.06856 5.60017 8.15651 4.52566 8.15651 3.20017C8.15651 1.87469 7.06856 0.800171 5.72651 0.800171C4.38446 0.800171 3.29651 1.87469 3.29651 3.20017C3.29651 4.52566 4.38446 5.60017 5.72651 5.60017Z" fill="white"/>
<path d="M6.53648 5.60017C7.87853 5.60017 8.96648 4.52566 8.96648 3.20017C8.96648 1.87469 7.87853 0.800171 6.53648 0.800171C5.19442 0.800171 4.10648 1.87469 4.10648 3.20017C4.10648 4.52566 5.19442 5.60017 6.53648 5.60017Z" fill="#0099B5"/>
<path d="M11.0713 4.64111L10.9174 5.09712L11.1523 5.17712" fill="white"/>
</g>
<defs>
<clipPath id="clip0">
<rect width="27" height="20" fill="white" transform="translate(0.0566406)"/>
</clipPath>
</defs>
</svg>
