<svg width="253" height="187" viewBox="0 0 253 187" fill="none" xmlns="http://www.w3.org/2000/svg">
<g clip-path="url(#clip0)">
<path d="M211.794 174.361C212.124 174.361 212.391 174.094 212.391 173.765C212.391 173.436 212.124 173.169 211.794 173.169C211.464 173.169 211.196 173.436 211.196 173.765C211.196 174.094 211.464 174.361 211.794 174.361Z" fill="#89BCFF"/>
<path opacity="0.2" d="M212.046 173.225C212.152 173.321 212.22 173.452 212.237 173.593C212.255 173.734 212.221 173.878 212.142 173.996C212.063 174.115 211.944 174.201 211.806 174.24C211.668 174.278 211.521 174.266 211.392 174.205C211.456 174.263 211.531 174.307 211.613 174.333C211.695 174.359 211.782 174.367 211.867 174.356C211.952 174.346 212.034 174.317 212.108 174.272C212.181 174.227 212.243 174.167 212.291 174.095C212.339 174.024 212.37 173.943 212.384 173.858C212.397 173.773 212.392 173.687 212.369 173.604C212.345 173.521 212.304 173.445 212.249 173.38C212.193 173.314 212.124 173.262 212.046 173.225Z" fill="black"/>
<path d="M227.15 175.006C227.961 175.006 228.618 174.74 228.618 174.411C228.618 174.081 227.961 173.815 227.15 173.815C226.339 173.815 225.681 174.081 225.681 174.411C225.681 174.74 226.339 175.006 227.15 175.006Z" fill="#3F3D56"/>
<path opacity="0.2" d="M227.15 173.815C227.099 173.815 227.05 173.816 227 173.818C227.741 173.848 228.32 174.102 228.32 174.411C228.32 174.719 227.741 174.973 227 175.003C227.05 175.005 227.099 175.006 227.15 175.006C227.961 175.006 228.618 174.74 228.618 174.411C228.618 174.081 227.961 173.815 227.15 173.815Z" fill="black"/>
<path d="M229.066 174.411H221.699V173.616C221.699 173.577 221.683 173.539 221.655 173.511C221.627 173.483 221.589 173.467 221.55 173.467H217.468C217.428 173.467 217.39 173.483 217.362 173.511C217.334 173.539 217.319 173.577 217.319 173.616V174.411H213.038V173.914C213.038 173.875 213.022 173.837 212.994 173.809C212.966 173.781 212.928 173.765 212.888 173.765H210.698C210.659 173.765 210.621 173.781 210.593 173.809C210.565 173.837 210.549 173.875 210.549 173.914V174.411H209.952C209.932 174.411 209.913 174.414 209.894 174.422C209.876 174.429 209.86 174.44 209.846 174.454C209.832 174.468 209.821 174.484 209.814 174.502C209.806 174.52 209.802 174.54 209.802 174.559V184.342C209.802 184.361 209.806 184.38 209.814 184.398C209.821 184.417 209.832 184.433 209.846 184.447C209.86 184.461 209.876 184.472 209.894 184.479C209.912 184.487 209.932 184.49 209.951 184.491H229.066C229.106 184.491 229.144 184.475 229.172 184.447C229.2 184.419 229.215 184.381 229.215 184.342V174.56C229.215 174.52 229.2 174.482 229.172 174.454C229.144 174.426 229.106 174.411 229.066 174.411H229.066Z" fill="#3F3D56"/>
<path d="M229.215 178.482H209.802V180.369H229.215V178.482Z" fill="#89BCFF"/>
<path d="M219.509 183.199C221.598 183.199 223.292 181.51 223.292 179.426C223.292 177.342 221.598 175.652 219.509 175.652C217.419 175.652 215.726 177.342 215.726 179.426C215.726 181.51 217.419 183.199 219.509 183.199Z" fill="#89BCFF"/>
<path d="M219.509 182.234C221.064 182.234 222.324 180.977 222.324 179.426C222.324 177.875 221.064 176.617 219.509 176.617C217.954 176.617 216.693 177.875 216.693 179.426C216.693 180.977 217.954 182.234 219.509 182.234Z" fill="#3F3D56"/>
<path d="M221.699 179.426C221.699 179.722 221.639 180.016 221.521 180.288C221.458 180.435 221.379 180.575 221.285 180.704C221.099 180.961 220.86 181.174 220.584 181.329C220.307 181.485 220 181.579 219.684 181.604C219.368 181.629 219.05 181.586 218.752 181.477C218.454 181.367 218.184 181.195 217.959 180.971C217.735 180.747 217.562 180.478 217.453 180.181C217.343 179.884 217.299 179.566 217.325 179.251C217.35 178.935 217.444 178.629 217.6 178.353C217.756 178.078 217.97 177.839 218.227 177.654C218.357 177.56 218.497 177.481 218.644 177.418C218.977 177.275 219.341 177.217 219.702 177.249C220.063 177.281 220.411 177.402 220.713 177.601C221.016 177.8 221.265 178.071 221.437 178.39C221.609 178.708 221.699 179.064 221.699 179.426Z" fill="white"/>
<path d="M32.5576 0H31.9775V54.107H32.5576V0Z" fill="#E6E6E6"/>
<path d="M0.350133 29.9035C0.257303 29.9036 0.168304 29.9405 0.102663 30.0059C0.0370224 30.0714 0.000100578 30.1602 0 30.2528V75.909C8.83159e-05 76.0016 0.0370064 76.0904 0.10265 76.1559C0.168293 76.2214 0.257299 76.2582 0.350133 76.2583H64.1137C64.2065 76.2582 64.2955 76.2214 64.3611 76.1559C64.4268 76.0904 64.4637 76.0016 64.4638 75.909V30.2528C64.4637 30.1602 64.4268 30.0714 64.3611 30.0059C64.2955 29.9405 64.2065 29.9036 64.1137 29.9035H0.350133Z" fill="#E6E6E6"/>
<path d="M60.5928 33.6711V66.117C60.5928 66.2242 60.5717 66.3304 60.5306 66.4295C60.4894 66.5286 60.4292 66.6187 60.3532 66.6945C60.2772 66.7704 60.187 66.8305 60.0877 66.8716C59.9884 66.9127 59.8819 66.9338 59.7744 66.9339H4.55912C4.51982 66.9342 4.48056 66.9311 4.44177 66.9248C4.247 66.8968 4.06886 66.7997 3.94002 66.6514C3.81117 66.503 3.74024 66.3133 3.74023 66.117V33.6711C3.74016 33.4546 3.82634 33.2468 3.97981 33.0936C4.13328 32.9404 4.34146 32.8543 4.55857 32.8543H59.7739C59.8814 32.8542 59.9878 32.8753 60.0872 32.9163C60.1865 32.9573 60.2768 33.0175 60.3528 33.0933C60.4288 33.1691 60.4892 33.2591 60.5303 33.3581C60.5715 33.4572 60.5927 33.5634 60.5928 33.6706L60.5928 33.6711Z" fill="white"/>
<path d="M40.1875 67.064H4.9442C4.90007 67.0645 4.85599 67.061 4.8125 67.0535L21.481 38.2524C21.5827 38.073 21.7304 37.9238 21.9088 37.82C22.0873 37.7161 22.2902 37.6614 22.4968 37.6614C22.7034 37.6614 22.9063 37.7161 23.0847 37.82C23.2632 37.9238 23.4108 38.073 23.5126 38.2524L34.6992 57.5802L35.2351 58.505L40.1875 67.064Z" fill="#E6E6E6"/>
<path opacity="0.2" d="M40.1875 67.064H28.1548L34.0615 58.5049L34.4867 57.8884L34.6993 57.5802L35.2353 58.5049L40.1875 67.064Z" fill="black"/>
<path d="M59.8107 67.0639H29.3281L35.2351 58.505L35.6601 57.8885L43.3574 46.7345C43.4935 46.5641 43.664 46.4242 43.8579 46.3238C44.0517 46.2234 44.2646 46.1648 44.4826 46.1518C44.7006 46.1388 44.9189 46.1717 45.1234 46.2483C45.3278 46.325 45.5138 46.4437 45.6693 46.5967C45.7092 46.6402 45.7462 46.6863 45.7802 46.7345L59.8107 67.0639Z" fill="#E6E6E6"/>
<path d="M32.2676 32.117C32.9084 32.117 33.4279 31.5988 33.4279 30.9596C33.4279 30.3204 32.9084 29.8022 32.2676 29.8022C31.6269 29.8022 31.1074 30.3204 31.1074 30.9596C31.1074 31.5988 31.6269 32.117 32.2676 32.117Z" fill="white"/>
<path d="M126.826 0H126.246V54.107H126.826V0Z" fill="#E6E6E6"/>
<path d="M94.6182 29.9035C94.5254 29.9036 94.4364 29.9405 94.3707 30.0059C94.3051 30.0714 94.2682 30.1602 94.2681 30.2528V75.909C94.2682 76.0016 94.3051 76.0904 94.3707 76.1559C94.4364 76.2214 94.5254 76.2582 94.6182 76.2583H158.382C158.475 76.2582 158.564 76.2214 158.629 76.1559C158.695 76.0904 158.732 76.0016 158.732 75.909V30.2528C158.732 30.1602 158.695 30.0714 158.629 30.0059C158.564 29.9405 158.475 29.9036 158.382 29.9035H94.6182Z" fill="#E6E6E6"/>
<path d="M154.861 33.6711V66.117C154.861 66.2242 154.84 66.3304 154.799 66.4295C154.758 66.5286 154.698 66.6187 154.622 66.6945C154.546 66.7704 154.456 66.8305 154.356 66.8716C154.257 66.9127 154.15 66.9338 154.043 66.9339H98.8277C98.7884 66.9342 98.7491 66.9311 98.7103 66.9248C98.5156 66.8968 98.3374 66.7997 98.2086 66.6514C98.0797 66.503 98.0088 66.3133 98.0088 66.117V33.6711C98.0087 33.4546 98.0949 33.2468 98.2484 33.0936C98.4018 32.9404 98.61 32.8543 98.8271 32.8543H154.042C154.15 32.8542 154.256 32.8753 154.356 32.9163C154.455 32.9573 154.545 33.0175 154.621 33.0933C154.697 33.1691 154.758 33.2591 154.799 33.3581C154.84 33.4572 154.861 33.5634 154.861 33.6706V33.6711Z" fill="white"/>
<path d="M134.456 67.064H99.2123C99.1681 67.0645 99.1241 67.061 99.0806 67.0535L115.749 38.2524C115.851 38.073 115.998 37.9238 116.177 37.82C116.355 37.7161 116.558 37.6614 116.765 37.6614C116.971 37.6614 117.174 37.7161 117.353 37.82C117.531 37.9238 117.679 38.073 117.781 38.2524L128.967 57.5802L129.503 58.505L134.456 67.064Z" fill="#89BCFF"/>
<path opacity="0.2" d="M134.456 67.064H122.423L128.33 58.5049L128.755 57.8884L128.967 57.5802L129.503 58.5049L134.456 67.064Z" fill="black"/>
<path d="M154.079 67.0639H123.596L129.503 58.505L129.928 57.8885L137.625 46.7345C137.762 46.5641 137.932 46.4242 138.126 46.3238C138.32 46.2234 138.533 46.1648 138.751 46.1518C138.969 46.1388 139.187 46.1717 139.391 46.2483C139.596 46.325 139.782 46.4437 139.937 46.5967C139.977 46.6402 140.014 46.6863 140.048 46.7345L154.079 67.0639Z" fill="#89BCFF"/>
<path d="M126.536 32.117C127.176 32.117 127.696 31.5988 127.696 30.9596C127.696 30.3204 127.176 29.8022 126.536 29.8022C125.895 29.8022 125.375 30.3204 125.375 30.9596C125.375 31.5988 125.895 32.117 126.536 32.117Z" fill="white"/>
<path d="M221.094 0H220.514V54.107H221.094V0Z" fill="#E6E6E6"/>
<path d="M188.886 29.9035C188.793 29.9036 188.704 29.9405 188.639 30.0059C188.573 30.0714 188.536 30.1602 188.536 30.2528V75.909C188.536 76.0016 188.573 76.0904 188.639 76.1559C188.704 76.2214 188.793 76.2582 188.886 76.2583H252.65C252.743 76.2582 252.832 76.2214 252.897 76.1559C252.963 76.0904 253 76.0016 253 75.909V30.2528C253 30.1602 252.963 30.0714 252.897 30.0059C252.832 29.9405 252.743 29.9036 252.65 29.9035H188.886Z" fill="#E6E6E6"/>
<path d="M249.129 33.6711V66.117C249.129 66.2242 249.108 66.3304 249.067 66.4295C249.026 66.5286 248.966 66.6187 248.89 66.6945C248.814 66.7704 248.724 66.8305 248.624 66.8716C248.525 66.9127 248.419 66.9338 248.311 66.9339H193.096C193.056 66.9342 193.017 66.9311 192.978 66.9248C192.784 66.8968 192.605 66.7997 192.477 66.6514C192.348 66.503 192.277 66.3133 192.277 66.117V33.6711C192.277 33.4546 192.363 33.2468 192.516 33.0936C192.67 32.9404 192.878 32.8543 193.095 32.8543H248.31C248.418 32.8542 248.524 32.8753 248.624 32.9163C248.723 32.9573 248.813 33.0175 248.889 33.0933C248.965 33.1691 249.026 33.2591 249.067 33.3581C249.108 33.4572 249.129 33.5634 249.129 33.6706V33.6711Z" fill="white"/>
<path d="M228.724 67.064H193.48C193.436 67.0645 193.392 67.061 193.349 67.0535L210.017 38.2524C210.119 38.073 210.266 37.9238 210.445 37.82C210.623 37.7161 210.826 37.6614 211.033 37.6614C211.239 37.6614 211.442 37.7161 211.621 37.82C211.799 37.9238 211.947 38.073 212.049 38.2524L223.235 57.5802L223.771 58.505L228.724 67.064Z" fill="#E6E6E6"/>
<path opacity="0.2" d="M228.724 67.064H216.691L222.598 58.5049L223.023 57.8884L223.235 57.5802L223.771 58.5049L228.724 67.064Z" fill="black"/>
<path d="M248.347 67.0639H217.864L223.771 58.505L224.196 57.8885L231.894 46.7345C232.03 46.5641 232.2 46.4242 232.394 46.3238C232.588 46.2234 232.801 46.1648 233.019 46.1518C233.237 46.1388 233.455 46.1717 233.659 46.2483C233.864 46.325 234.05 46.4437 234.205 46.5967C234.245 46.6402 234.282 46.6863 234.316 46.7345L248.347 67.0639Z" fill="#E6E6E6"/>
<path d="M220.804 32.117C221.445 32.117 221.964 31.5988 221.964 30.9596C221.964 30.3204 221.445 29.8022 220.804 29.8022C220.163 29.8022 219.644 30.3204 219.644 30.9596C219.644 31.5988 220.163 32.117 220.804 32.117Z" fill="white"/>
<path d="M198.603 119.513L199.145 123.206C199.218 123.707 199.174 124.219 199.015 124.701C198.855 125.182 198.586 125.62 198.228 125.98C197.87 126.34 197.433 126.611 196.951 126.773C196.469 126.935 195.956 126.983 195.453 126.913C194.964 126.845 194.498 126.667 194.087 126.394C193.677 126.121 193.334 125.758 193.084 125.334C192.834 124.91 192.683 124.435 192.643 123.944C192.603 123.454 192.674 122.961 192.852 122.502L194.69 117.756L193.712 85.749L199.385 83.6021L198.603 119.513Z" fill="#A0616A"/>
<path d="M182.56 66.4275C186.882 66.4275 190.386 62.9323 190.386 58.6208C190.386 54.3094 186.882 50.8142 182.56 50.8142C178.238 50.8142 174.734 54.3094 174.734 58.6208C174.734 62.9323 178.238 66.4275 182.56 66.4275Z" fill="#A0616A"/>
<path d="M191.951 73.2583L177.473 72.6728C179.08 69.1614 179.718 65.7647 179.038 62.5242H188.625C188.12 65.5802 189.512 69.2498 191.951 73.2583Z" fill="#A0616A"/>
<path d="M189.603 103.704L168.278 105.266L169.053 93.2445C166.595 87.4133 166.988 83.2024 169.88 80.4129L170.142 76.3514C170.226 75.0514 170.716 73.8104 171.544 72.8028C172.371 71.7952 173.495 71.0718 174.756 70.7343L178.451 69.7453C183.236 72.5412 187.05 72.5031 189.799 69.355L194.197 71.602C195.262 72.1464 196.136 73.0011 196.703 74.0528C197.27 75.1045 197.503 76.3033 197.371 77.4901L189.603 103.704Z" fill="#89BCFF"/>
<path d="M156.93 104.875L150.91 108.028C150.395 108.297 149.804 108.387 149.232 108.281C148.66 108.176 148.141 107.882 147.756 107.446C147.456 107.105 147.25 106.692 147.161 106.248C147.071 105.803 147.1 105.343 147.244 104.913C147.389 104.483 147.644 104.098 147.985 103.797C148.325 103.497 148.739 103.291 149.184 103.2L153.408 102.338L166.517 97.2638L168.669 82.0408L174.734 83.6021L173.56 101.557L156.93 104.875Z" fill="#A0616A"/>
<path d="M199.777 84.578L193.125 88.4813L192.733 72.868L193.88 72.4777C195.444 72.4777 196.944 73.0974 198.05 74.2004C199.155 75.3035 199.777 76.7996 199.777 78.3596V84.578Z" fill="#89BCFF"/>
<path d="M195.179 180.307L189.523 179.424C188.381 160.146 186.08 142.148 181.973 126.148C172.475 138.703 164.513 157.207 157.713 180.209L151.061 178.453L168.473 102.728L189.212 102.338C197.693 113.922 195.21 149.7 195.179 180.307Z" fill="#2F2E41"/>
<path d="M154.775 186.97L144.947 185.596C144.674 185.558 144.413 185.462 144.18 185.315C143.948 185.169 143.749 184.974 143.598 184.745C143.446 184.516 143.345 184.257 143.302 183.986C143.259 183.715 143.274 183.438 143.346 183.173C143.445 182.809 143.649 182.483 143.932 182.233C144.215 181.984 144.565 181.822 144.939 181.768L146.685 181.516L152.207 178.152L156.775 179.367L158.13 183.355C158.234 183.827 158.222 184.318 158.095 184.785C157.968 185.252 157.729 185.682 157.399 186.037C157.07 186.392 156.659 186.662 156.202 186.825C155.745 186.987 155.255 187.037 154.775 186.97Z" fill="#2F2E41"/>
<path d="M193.318 186.97L183.49 185.596C183.217 185.558 182.956 185.462 182.723 185.315C182.491 185.169 182.292 184.974 182.141 184.745C181.989 184.516 181.888 184.257 181.845 183.986C181.802 183.715 181.817 183.438 181.889 183.173C181.988 182.809 182.192 182.483 182.475 182.233C182.758 181.984 183.108 181.822 183.482 181.768L185.228 181.516L190.75 178.152L195.318 179.367L196.672 183.355C196.777 183.827 196.765 184.318 196.638 184.785C196.511 185.252 196.272 185.682 195.942 186.037C195.613 186.392 195.202 186.662 194.745 186.825C194.288 186.987 193.798 187.037 193.318 186.97Z" fill="#2F2E41"/>
<path d="M175.908 87.5055C174.129 83.605 171.057 82.0939 165.93 84.3828L166.621 79.2968C166.881 77.3871 167.694 75.5948 168.962 74.1404C170.23 72.6861 171.896 71.6333 173.756 71.1115L175.908 87.5055Z" fill="#89BCFF"/>
<path d="M173.324 54.6153C173.324 54.6153 172.092 45.0576 182.138 48.1918C182.138 48.1918 189.312 46.8786 191.665 55.8306L194.047 65.2146L192.886 64.5842L192.345 65.7645L190.464 66.2397L189.659 64.6457L189.269 66.5815L173.859 68.1139C173.859 68.1139 180.761 64.0423 180.87 56.745L179.556 58.1308L173.324 54.6153Z" fill="#2F2E41"/>
<path d="M190.399 52.1506C192.539 52.1506 194.274 50.4201 194.274 48.2853C194.274 46.1506 192.539 44.4201 190.399 44.4201C188.259 44.4201 186.524 46.1506 186.524 48.2853C186.524 50.4201 188.259 52.1506 190.399 52.1506Z" fill="#2F2E41"/>
<path d="M186.406 47.3391C186.47 46.3584 186.906 45.4388 187.626 44.7676C188.345 44.0964 189.294 43.724 190.279 43.7264C190.199 43.7163 190.12 43.704 190.038 43.6987C189.531 43.6662 189.021 43.7337 188.54 43.8975C188.058 44.0612 187.614 44.318 187.231 44.6532C186.849 44.9883 186.537 45.3953 186.313 45.8508C186.088 46.3063 185.956 46.8015 185.923 47.3081C185.89 47.8146 185.958 48.3226 186.122 48.8031C186.286 49.2835 186.544 49.727 186.88 50.1082C187.216 50.4894 187.624 50.8009 188.08 51.0248C188.537 51.2488 189.033 51.3808 189.541 51.4134C189.623 51.4186 189.703 51.4165 189.784 51.4167C188.806 51.2932 187.913 50.8027 187.285 50.0451C186.658 49.2875 186.344 48.3198 186.406 47.3391Z" fill="#2F2E41"/>
<path d="M35.9089 83.5238V91.2006C35.9089 91.2259 35.9039 91.251 35.8942 91.2745C35.8845 91.2979 35.8702 91.3192 35.8523 91.3372C35.8343 91.3551 35.8129 91.3694 35.7894 91.3791C35.7659 91.3888 35.7407 91.3938 35.7153 91.3938H22.6513C22.642 91.3939 22.6327 91.3932 22.6235 91.3917C22.5774 91.3851 22.5353 91.3621 22.5048 91.327C22.4743 91.2919 22.4575 91.247 22.4575 91.2006V83.5238C22.4575 83.4984 22.4625 83.4733 22.4722 83.4498C22.482 83.4264 22.4962 83.4051 22.5142 83.3871C22.5322 83.3692 22.5535 83.355 22.577 83.3452C22.6005 83.3355 22.6257 83.3305 22.6511 83.3305H35.7152C35.7406 83.3305 35.7658 83.3355 35.7893 83.3452C35.8128 83.3549 35.8342 83.3691 35.8522 83.387C35.8702 83.405 35.8844 83.4263 35.8942 83.4497C35.9039 83.4732 35.9089 83.4983 35.9089 83.5237V83.5238Z" fill="#E6E6E6"/>
<path d="M133.367 83.5238V91.2006C133.367 91.2259 133.362 91.251 133.353 91.2745C133.343 91.2979 133.329 91.3192 133.311 91.3372C133.293 91.3551 133.271 91.3694 133.248 91.3791C133.224 91.3888 133.199 91.3938 133.174 91.3938H120.11C120.1 91.3939 120.091 91.3932 120.082 91.3917C120.036 91.3851 119.994 91.3621 119.963 91.327C119.933 91.2919 119.916 91.247 119.916 91.2006V83.5238C119.916 83.4984 119.921 83.4733 119.931 83.4498C119.94 83.4264 119.955 83.4051 119.973 83.3871C119.991 83.3692 120.012 83.355 120.036 83.3452C120.059 83.3355 120.084 83.3305 120.11 83.3305H133.174C133.199 83.3305 133.224 83.3355 133.248 83.3452C133.271 83.3549 133.293 83.3691 133.311 83.387C133.329 83.405 133.343 83.4263 133.353 83.4497C133.362 83.4732 133.367 83.4983 133.367 83.5237L133.367 83.5238Z" fill="#89BCFF"/>
<path d="M227.635 83.5238V91.2006C227.635 91.2259 227.63 91.251 227.621 91.2745C227.611 91.2979 227.597 91.3192 227.579 91.3372C227.561 91.3551 227.539 91.3694 227.516 91.3791C227.492 91.3888 227.467 91.3938 227.442 91.3938H214.378C214.369 91.3939 214.359 91.3932 214.35 91.3917C214.304 91.3851 214.262 91.3621 214.231 91.327C214.201 91.2919 214.184 91.247 214.184 91.2006V83.5238C214.184 83.4984 214.189 83.4733 214.199 83.4498C214.209 83.4264 214.223 83.4051 214.241 83.3871C214.259 83.3692 214.28 83.355 214.304 83.3452C214.327 83.3355 214.352 83.3305 214.378 83.3305H227.442C227.467 83.3305 227.492 83.3355 227.516 83.3452C227.539 83.3549 227.561 83.3691 227.579 83.387C227.597 83.405 227.611 83.4263 227.621 83.4497C227.63 83.4732 227.635 83.4983 227.635 83.5237L227.635 83.5238Z" fill="#E6E6E6"/>
</g>
<defs>
<clipPath id="clip0">
<rect width="253" height="187" fill="white"/>
</clipPath>
</defs>
</svg>
